<svg xmlns="http://www.w3.org/2000/svg" viewBox="0 0 1600 900" role="img" aria-label="Warm workshop table with paint and paper">
  <defs>
    <linearGradient id="wall" x1="0" y1="0" x2="1" y2="1">
      <stop offset="0" stop-color="#f3d8ad"/>
      <stop offset=".52" stop-color="#c4825f"/>
      <stop offset="1" stop-color="#4d5965"/>
    </linearGradient>
    <linearGradient id="paper" x1="0" y1="0" x2="1" y2="1">
      <stop offset="0" stop-color="#fff7e7"/>
      <stop offset="1" stop-color="#e3c8a4"/>
    </linearGradient>
  </defs>
  <rect width="1600" height="900" fill="url(#wall)"/>
  <rect x="0" y="570" width="1600" height="330" fill="#765348"/>
  <rect x="270" y="205" width="470" height="315" rx="16" fill="url(#paper)" transform="rotate(-4 505 362)"/>
  <rect x="825" y="165" width="320" height="430" rx="18" fill="#f8efe2" opacity=".9" transform="rotate(5 985 380)"/>
  <circle cx="1000" cy="350" r="105" fill="#5d7778"/>
  <path d="M820 560c94-140 218-170 340-44v92H820z" fill="#bd6b57"/>
  <circle cx="400" cy="660" r="70" fill="#edd077"/>
  <circle cx="535" cy="700" r="46" fill="#526e86"/>
  <circle cx="665" cy="655" r="58" fill="#b85b56"/>
  <path d="M1180 720c70-160 210-250 420-270v450h-420z" fill="#263848" opacity=".35"/>
</svg>
